<svg width="135" height="18" viewBox="0 0 135 18" fill="none" xmlns="http://www.w3.org/2000/svg">
<path d="M6 3C2.7474 3 0 5.748 0 9C0 12.252 2.7474 15 6 15C9.2526 15 12 12.252 12 9C12 5.748 9.2526 3 6 3ZM6 10.8C6.5952 10.8 7.11 10.641 7.3758 10.3752L8.2242 11.2242C7.5486 11.8992 6.5406 12 6 12C4.3458 12 3 10.6542 3 9C3 7.3458 4.3458 6 6 6C6.5406 6 7.5492 6.1008 8.2242 6.7758L7.3758 7.6242C7.1106 7.3584 6.5958 7.2 6 7.2C5.0244 7.2 4.2 8.0244 4.2 9C4.2 9.9756 5.0244 10.8 6 10.8Z" fill="#51E9F2"/>
<path d="M17.988 11.512H14.844L14.34 13H12.192L15.24 4.576H17.616L20.664 13H18.492L17.988 11.512ZM17.46 9.928L16.416 6.844L15.384 9.928H17.46ZM30.1357 6.232C30.9677 6.232 31.6277 6.484 32.1157 6.988C32.6117 7.492 32.8597 8.192 32.8597 9.088V13H30.8197V9.364C30.8197 8.932 30.7037 8.6 30.4717 8.368C30.2477 8.128 29.9357 8.008 29.5357 8.008C29.1357 8.008 28.8197 8.128 28.5877 8.368C28.3637 8.6 28.2517 8.932 28.2517 9.364V13H26.2117V9.364C26.2117 8.932 26.0957 8.6 25.8637 8.368C25.6397 8.128 25.3277 8.008 24.9277 8.008C24.5277 8.008 24.2117 8.128 23.9797 8.368C23.7557 8.6 23.6437 8.932 23.6437 9.364V13H21.5917V6.304H23.6437V7.144C23.8517 6.864 24.1237 6.644 24.4597 6.484C24.7957 6.316 25.1757 6.232 25.5997 6.232C26.1037 6.232 26.5517 6.34 26.9437 6.556C27.3437 6.772 27.6557 7.08 27.8797 7.48C28.1117 7.112 28.4277 6.812 28.8277 6.58C29.2277 6.348 29.6637 6.232 30.1357 6.232ZM33.8868 9.64C33.8868 8.952 34.0148 8.348 34.2708 7.828C34.5348 7.308 34.8908 6.908 35.3388 6.628C35.7868 6.348 36.2868 6.208 36.8388 6.208C37.3108 6.208 37.7228 6.304 38.0748 6.496C38.4348 6.688 38.7108 6.94 38.9028 7.252V6.304H40.9548V13H38.9028V12.052C38.7028 12.364 38.4228 12.616 38.0628 12.808C37.7108 13 37.2988 13.096 36.8268 13.096C36.2828 13.096 35.7868 12.956 35.3388 12.676C34.8908 12.388 34.5348 11.984 34.2708 11.464C34.0148 10.936 33.8868 10.328 33.8868 9.64ZM38.9028 9.652C38.9028 9.14 38.7588 8.736 38.4708 8.44C38.1908 8.144 37.8468 7.996 37.4388 7.996C37.0308 7.996 36.6828 8.144 36.3948 8.44C36.1148 8.728 35.9748 9.128 35.9748 9.64C35.9748 10.152 36.1148 10.56 36.3948 10.864C36.6828 11.16 37.0308 11.308 37.4388 11.308C37.8468 11.308 38.1908 11.16 38.4708 10.864C38.7588 10.568 38.9028 10.164 38.9028 9.652ZM44.3593 11.308H47.2633V13H42.0673V11.368L44.8513 7.996H42.0913V6.304H47.2033V7.936L44.3593 11.308ZM54.7044 9.544C54.7044 9.736 54.6924 9.936 54.6684 10.144H50.0244C50.0564 10.56 50.1884 10.88 50.4204 11.104C50.6604 11.32 50.9524 11.428 51.2964 11.428C51.8084 11.428 52.1644 11.212 52.3644 10.78H54.5484C54.4364 11.22 54.2324 11.616 53.9364 11.968C53.6484 12.32 53.2844 12.596 52.8444 12.796C52.4044 12.996 51.9124 13.096 51.3684 13.096C50.7124 13.096 50.1284 12.956 49.6164 12.676C49.1044 12.396 48.7044 11.996 48.4164 11.476C48.1284 10.956 47.9844 10.348 47.9844 9.652C47.9844 8.956 48.1244 8.348 48.4044 7.828C48.6924 7.308 49.0924 6.908 49.6044 6.628C50.1164 6.348 50.7044 6.208 51.3684 6.208C52.0164 6.208 52.5924 6.344 53.0964 6.616C53.6004 6.888 53.9924 7.276 54.2724 7.78C54.5604 8.284 54.7044 8.872 54.7044 9.544ZM52.6044 9.004C52.6044 8.652 52.4844 8.372 52.2444 8.164C52.0044 7.956 51.7044 7.852 51.3444 7.852C51.0004 7.852 50.7084 7.952 50.4684 8.152C50.2364 8.352 50.0924 8.636 50.0364 9.004H52.6044ZM55.379 9.64C55.379 8.952 55.507 8.348 55.763 7.828C56.027 7.308 56.383 6.908 56.831 6.628C57.279 6.348 57.779 6.208 58.331 6.208C58.771 6.208 59.171 6.3 59.531 6.484C59.899 6.668 60.187 6.916 60.395 7.228V4.12H62.447V13H60.395V12.04C60.203 12.36 59.927 12.616 59.567 12.808C59.215 13 58.803 13.096 58.331 13.096C57.779 13.096 57.279 12.956 56.831 12.676C56.383 12.388 56.027 11.984 55.763 11.464C55.507 10.936 55.379 10.328 55.379 9.64ZM60.395 9.652C60.395 9.14 60.251 8.736 59.963 8.44C59.683 8.144 59.339 7.996 58.931 7.996C58.523 7.996 58.175 8.144 57.887 8.44C57.607 8.728 57.467 9.128 57.467 9.64C57.467 10.152 57.607 10.56 57.887 10.864C58.175 11.16 58.523 11.308 58.931 11.308C59.339 11.308 59.683 11.16 59.963 10.864C60.251 10.568 60.395 10.164 60.395 9.652ZM65.9475 4.576V9.616C65.9475 10.12 66.0715 10.508 66.3195 10.78C66.5675 11.052 66.9315 11.188 67.4115 11.188C67.8915 11.188 68.2595 11.052 68.5155 10.78C68.7715 10.508 68.8995 10.12 68.8995 9.616V4.576H70.9515V9.604C70.9515 10.356 70.7915 10.992 70.4715 11.512C70.1515 12.032 69.7195 12.424 69.1755 12.688C68.6395 12.952 68.0395 13.084 67.3755 13.084C66.7115 13.084 66.1155 12.956 65.5875 12.7C65.0675 12.436 64.6555 12.044 64.3515 11.524C64.0475 10.996 63.8955 10.356 63.8955 9.604V4.576H65.9475ZM75.1164 13.096C74.5324 13.096 74.0124 12.996 73.5564 12.796C73.1004 12.596 72.7404 12.324 72.4764 11.98C72.2124 11.628 72.0644 11.236 72.0324 10.804H74.0604C74.0844 11.036 74.1924 11.224 74.3844 11.368C74.5764 11.512 74.8124 11.584 75.0924 11.584C75.3484 11.584 75.5444 11.536 75.6804 11.44C75.8244 11.336 75.8964 11.204 75.8964 11.044C75.8964 10.852 75.7964 10.712 75.5964 10.624C75.3964 10.528 75.0724 10.424 74.6244 10.312C74.1444 10.2 73.7444 10.084 73.4244 9.964C73.1044 9.836 72.8284 9.64 72.5964 9.376C72.3644 9.104 72.2484 8.74 72.2484 8.284C72.2484 7.9 72.3524 7.552 72.5604 7.24C72.7764 6.92 73.0884 6.668 73.4964 6.484C73.9124 6.3 74.4044 6.208 74.9724 6.208C75.8124 6.208 76.4724 6.416 76.9524 6.832C77.4404 7.248 77.7204 7.8 77.7924 8.488H75.8964C75.8644 8.256 75.7604 8.072 75.5844 7.936C75.4164 7.8 75.1924 7.732 74.9124 7.732C74.6724 7.732 74.4884 7.78 74.3604 7.876C74.2324 7.964 74.1684 8.088 74.1684 8.248C74.1684 8.44 74.2684 8.584 74.4684 8.68C74.6764 8.776 74.9964 8.872 75.4284 8.968C75.9244 9.096 76.3284 9.224 76.6404 9.352C76.9524 9.472 77.2244 9.672 77.4564 9.952C77.6964 10.224 77.8204 10.592 77.8284 11.056C77.8284 11.448 77.7164 11.8 77.4924 12.112C77.2764 12.416 76.9604 12.656 76.5444 12.832C76.1364 13.008 75.6604 13.096 75.1164 13.096ZM83.6788 4.576V13H81.6268V4.576H83.6788ZM89.2459 6.232C90.0299 6.232 90.6539 6.488 91.1179 7C91.5899 7.504 91.8259 8.2 91.8259 9.088V13H89.7859V9.364C89.7859 8.916 89.6699 8.568 89.4379 8.32C89.2059 8.072 88.8939 7.948 88.5019 7.948C88.1099 7.948 87.7979 8.072 87.5659 8.32C87.3339 8.568 87.2179 8.916 87.2179 9.364V13H85.1659V6.304H87.2179V7.192C87.4259 6.896 87.7059 6.664 88.0579 6.496C88.4099 6.32 88.8059 6.232 89.2459 6.232ZM92.8438 9.652C92.8438 8.956 92.9838 8.348 93.2638 7.828C93.5518 7.308 93.9478 6.908 94.4518 6.628C94.9638 6.348 95.5478 6.208 96.2038 6.208C97.0438 6.208 97.7438 6.428 98.3038 6.868C98.8718 7.308 99.2438 7.928 99.4198 8.728H97.2358C97.0518 8.216 96.6958 7.96 96.1678 7.96C95.7918 7.96 95.4918 8.108 95.2678 8.404C95.0438 8.692 94.9318 9.108 94.9318 9.652C94.9318 10.196 95.0438 10.616 95.2678 10.912C95.4918 11.2 95.7918 11.344 96.1678 11.344C96.6958 11.344 97.0518 11.088 97.2358 10.576H99.4198C99.2438 11.36 98.8718 11.976 98.3038 12.424C97.7358 12.872 97.0358 13.096 96.2038 13.096C95.5478 13.096 94.9638 12.956 94.4518 12.676C93.9478 12.396 93.5518 11.996 93.2638 11.476C92.9838 10.956 92.8438 10.348 92.8438 9.652ZM101.477 13.096C101.117 13.096 100.821 12.992 100.589 12.784C100.365 12.568 100.253 12.304 100.253 11.992C100.253 11.672 100.365 11.404 100.589 11.188C100.821 10.972 101.117 10.864 101.477 10.864C101.829 10.864 102.117 10.972 102.341 11.188C102.573 11.404 102.689 11.672 102.689 11.992C102.689 12.304 102.573 12.568 102.341 12.784C102.117 12.992 101.829 13.096 101.477 13.096ZM106.171 11.356C106.443 11.14 106.567 11.04 106.543 11.056C107.327 10.408 107.943 9.876 108.391 9.46C108.847 9.044 109.231 8.608 109.543 8.152C109.855 7.696 110.011 7.252 110.011 6.82C110.011 6.492 109.935 6.236 109.783 6.052C109.631 5.868 109.403 5.776 109.099 5.776C108.795 5.776 108.555 5.892 108.379 6.124C108.211 6.348 108.127 6.668 108.127 7.084H106.147C106.163 6.404 106.307 5.836 106.579 5.38C106.859 4.924 107.223 4.588 107.671 4.372C108.127 4.156 108.631 4.048 109.183 4.048C110.135 4.048 110.851 4.292 111.331 4.78C111.819 5.268 112.063 5.904 112.063 6.688C112.063 7.544 111.771 8.34 111.187 9.076C110.603 9.804 109.859 10.516 108.955 11.212H112.195V12.88H106.171V11.356ZM113.099 8.5C113.099 7.124 113.363 6.04 113.891 5.248C114.427 4.456 115.287 4.06 116.471 4.06C117.655 4.06 118.511 4.456 119.039 5.248C119.575 6.04 119.843 7.124 119.843 8.5C119.843 9.892 119.575 10.984 119.039 11.776C118.511 12.568 117.655 12.964 116.471 12.964C115.287 12.964 114.427 12.568 113.891 11.776C113.363 10.984 113.099 9.892 113.099 8.5ZM117.827 8.5C117.827 7.692 117.739 7.072 117.563 6.64C117.387 6.2 117.023 5.98 116.471 5.98C115.919 5.98 115.555 6.2 115.379 6.64C115.203 7.072 115.115 7.692 115.115 8.5C115.115 9.044 115.147 9.496 115.211 9.856C115.275 10.208 115.403 10.496 115.595 10.72C115.795 10.936 116.087 11.044 116.471 11.044C116.855 11.044 117.143 10.936 117.335 10.72C117.535 10.496 117.667 10.208 117.731 9.856C117.795 9.496 117.827 9.044 117.827 8.5ZM120.855 11.356C121.127 11.14 121.251 11.04 121.227 11.056C122.011 10.408 122.627 9.876 123.075 9.46C123.531 9.044 123.915 8.608 124.227 8.152C124.539 7.696 124.695 7.252 124.695 6.82C124.695 6.492 124.619 6.236 124.467 6.052C124.315 5.868 124.087 5.776 123.783 5.776C123.479 5.776 123.239 5.892 123.063 6.124C122.895 6.348 122.811 6.668 122.811 7.084H120.831C120.847 6.404 120.991 5.836 121.263 5.38C121.543 4.924 121.907 4.588 122.355 4.372C122.811 4.156 123.315 4.048 123.867 4.048C124.819 4.048 125.535 4.292 126.015 4.78C126.503 5.268 126.747 5.904 126.747 6.688C126.747 7.544 126.455 8.34 125.871 9.076C125.287 9.804 124.543 10.516 123.639 11.212H126.879V12.88H120.855V11.356ZM127.854 6.712C127.886 5.856 128.166 5.196 128.694 4.732C129.222 4.268 129.938 4.036 130.842 4.036C131.442 4.036 131.954 4.14 132.378 4.348C132.81 4.556 133.134 4.84 133.35 5.2C133.574 5.56 133.686 5.964 133.686 6.412C133.686 6.94 133.554 7.372 133.29 7.708C133.026 8.036 132.718 8.26 132.366 8.38V8.428C132.822 8.58 133.182 8.832 133.446 9.184C133.71 9.536 133.842 9.988 133.842 10.54C133.842 11.036 133.726 11.476 133.494 11.86C133.27 12.236 132.938 12.532 132.498 12.748C132.066 12.964 131.55 13.072 130.95 13.072C129.99 13.072 129.222 12.836 128.646 12.364C128.078 11.892 127.778 11.18 127.746 10.228H129.738C129.746 10.58 129.846 10.86 130.038 11.068C130.23 11.268 130.51 11.368 130.878 11.368C131.19 11.368 131.43 11.28 131.598 11.104C131.774 10.92 131.862 10.68 131.862 10.384C131.862 10 131.738 9.724 131.49 9.556C131.25 9.38 130.862 9.292 130.326 9.292H129.942V7.624H130.326C130.734 7.624 131.062 7.556 131.31 7.42C131.566 7.276 131.694 7.024 131.694 6.664C131.694 6.376 131.614 6.152 131.454 5.992C131.294 5.832 131.074 5.752 130.794 5.752C130.49 5.752 130.262 5.844 130.11 6.028C129.966 6.212 129.882 6.44 129.858 6.712H127.854Z" fill="#303030"/>
</svg>
