<svg width="103" height="13" viewBox="0 0 103 13" fill="none" xmlns="http://www.w3.org/2000/svg">
<path d="M21.984 10.016H17.792L17.12 12H14.256L18.32 0.768H21.488L25.552 12H22.656L21.984 10.016ZM21.28 7.904L19.888 3.792L18.512 7.904H21.28ZM38.1809 2.976C39.2902 2.976 40.1702 3.312 40.8209 3.984C41.4822 4.656 41.8129 5.58933 41.8129 6.784V12H39.0929V7.152C39.0929 6.576 38.9382 6.13333 38.6289 5.824C38.3302 5.504 37.9142 5.344 37.3809 5.344C36.8475 5.344 36.4262 5.504 36.1169 5.824C35.8182 6.13333 35.6689 6.576 35.6689 7.152V12H32.9489V7.152C32.9489 6.576 32.7942 6.13333 32.4849 5.824C32.1862 5.504 31.7702 5.344 31.2369 5.344C30.7035 5.344 30.2822 5.504 29.9729 5.824C29.6742 6.13333 29.5249 6.576 29.5249 7.152V12H26.7889V3.072H29.5249V4.192C29.8022 3.81867 30.1649 3.52533 30.6129 3.312C31.0609 3.088 31.5675 2.976 32.1329 2.976C32.8049 2.976 33.4022 3.12 33.9249 3.408C34.4582 3.696 34.8742 4.10667 35.1729 4.64C35.4822 4.14933 35.9035 3.74933 36.4369 3.44C36.9702 3.13067 37.5515 2.976 38.1809 2.976ZM43.1824 7.52C43.1824 6.60267 43.353 5.79733 43.6944 5.104C44.0464 4.41067 44.521 3.87733 45.1184 3.504C45.7157 3.13067 46.3824 2.944 47.1184 2.944C47.7477 2.944 48.297 3.072 48.7664 3.328C49.2464 3.584 49.6144 3.92 49.8704 4.336V3.072H52.6064V12H49.8704V10.736C49.6037 11.152 49.2304 11.488 48.7504 11.744C48.281 12 47.7317 12.128 47.1024 12.128C46.377 12.128 45.7157 11.9413 45.1184 11.568C44.521 11.184 44.0464 10.6453 43.6944 9.952C43.353 9.248 43.1824 8.43733 43.1824 7.52ZM49.8704 7.536C49.8704 6.85333 49.6784 6.31467 49.2944 5.92C48.921 5.52533 48.4624 5.328 47.9184 5.328C47.3744 5.328 46.9104 5.52533 46.5264 5.92C46.153 6.304 45.9664 6.83733 45.9664 7.52C45.9664 8.20267 46.153 8.74667 46.5264 9.152C46.9104 9.54667 47.3744 9.744 47.9184 9.744C48.4624 9.744 48.921 9.54667 49.2944 9.152C49.6784 8.75733 49.8704 8.21867 49.8704 7.536ZM57.1458 9.744H61.0178V12H54.0898V9.824L57.8018 5.328H54.1217V3.072H60.9378V5.248L57.1458 9.744ZM70.9392 7.392C70.9392 7.648 70.9233 7.91467 70.8913 8.192H64.6993C64.7419 8.74667 64.9179 9.17333 65.2273 9.472C65.5473 9.76 65.9366 9.904 66.3953 9.904C67.0779 9.904 67.5526 9.616 67.8193 9.04H70.7313C70.5819 9.62667 70.3099 10.1547 69.9153 10.624C69.5313 11.0933 69.0459 11.4613 68.4593 11.728C67.8726 11.9947 67.2166 12.128 66.4913 12.128C65.6166 12.128 64.8379 11.9413 64.1553 11.568C63.4726 11.1947 62.9393 10.6613 62.5553 9.968C62.1713 9.27467 61.9793 8.464 61.9793 7.536C61.9793 6.608 62.1659 5.79733 62.5393 5.104C62.9233 4.41067 63.4566 3.87733 64.1393 3.504C64.8219 3.13067 65.6059 2.944 66.4913 2.944C67.3553 2.944 68.1233 3.12533 68.7953 3.488C69.4673 3.85067 69.9899 4.368 70.3633 5.04C70.7473 5.712 70.9392 6.496 70.9392 7.392ZM68.1393 6.672C68.1393 6.20267 67.9793 5.82933 67.6593 5.552C67.3393 5.27467 66.9393 5.136 66.4593 5.136C66.0006 5.136 65.6113 5.26933 65.2913 5.536C64.9819 5.80267 64.7899 6.18133 64.7153 6.672H68.1393ZM71.8386 7.52C71.8386 6.60267 72.0093 5.79733 72.3506 5.104C72.7026 4.41067 73.1773 3.87733 73.7746 3.504C74.372 3.13067 75.0386 2.944 75.7746 2.944C76.3613 2.944 76.8946 3.06667 77.3746 3.312C77.8653 3.55733 78.2493 3.888 78.5266 4.304V0.16H81.2626V12H78.5266V10.72C78.2706 11.1467 77.9026 11.488 77.4226 11.744C76.9533 12 76.404 12.128 75.7746 12.128C75.0386 12.128 74.372 11.9413 73.7746 11.568C73.1773 11.184 72.7026 10.6453 72.3506 9.952C72.0093 9.248 71.8386 8.43733 71.8386 7.52ZM78.5266 7.536C78.5266 6.85333 78.3346 6.31467 77.9506 5.92C77.5773 5.52533 77.1186 5.328 76.5746 5.328C76.0306 5.328 75.5666 5.52533 75.1826 5.92C74.8093 6.304 74.6226 6.83733 74.6226 7.52C74.6226 8.20267 74.8093 8.74667 75.1826 9.152C75.5666 9.54667 76.0306 9.744 76.5746 9.744C77.1186 9.744 77.5773 9.54667 77.9506 9.152C78.3346 8.75733 78.5266 8.21867 78.5266 7.536ZM85.93 0.768V7.488C85.93 8.16 86.0953 8.67733 86.426 9.04C86.7567 9.40267 87.242 9.584 87.882 9.584C88.522 9.584 89.0127 9.40267 89.354 9.04C89.6953 8.67733 89.866 8.16 89.866 7.488V0.768H92.602V7.472C92.602 8.47467 92.3887 9.32267 91.962 10.016C91.5353 10.7093 90.9593 11.232 90.234 11.584C89.5193 11.936 88.7193 12.112 87.834 12.112C86.9487 12.112 86.154 11.9413 85.45 11.6C84.7567 11.248 84.2073 10.7253 83.802 10.032C83.3967 9.328 83.194 8.47467 83.194 7.472V0.768H85.93ZM98.1553 12.128C97.3766 12.128 96.6833 11.9947 96.0753 11.728C95.4673 11.4613 94.9873 11.0987 94.6353 10.64C94.2833 10.1707 94.0859 9.648 94.0433 9.072H96.7473C96.7793 9.38133 96.9233 9.632 97.1793 9.824C97.4353 10.016 97.7499 10.112 98.1233 10.112C98.4646 10.112 98.7259 10.048 98.9073 9.92C99.0993 9.78133 99.1953 9.60533 99.1953 9.392C99.1953 9.136 99.0619 8.94933 98.7953 8.832C98.5286 8.704 98.0966 8.56533 97.4993 8.416C96.8593 8.26667 96.3259 8.112 95.8993 7.952C95.4726 7.78133 95.1046 7.52 94.7953 7.168C94.4859 6.80533 94.3313 6.32 94.3313 5.712C94.3313 5.2 94.4699 4.736 94.7473 4.32C95.0353 3.89333 95.4513 3.55733 95.9953 3.312C96.5499 3.06667 97.2059 2.944 97.9633 2.944C99.0833 2.944 99.9633 3.22133 100.603 3.776C101.254 4.33067 101.627 5.06667 101.723 5.984H99.1953C99.1526 5.67467 99.0139 5.42933 98.7793 5.248C98.5553 5.06667 98.2566 4.976 97.8833 4.976C97.5633 4.976 97.3179 5.04 97.1473 5.168C96.9766 5.28533 96.8913 5.45067 96.8913 5.664C96.8913 5.92 97.0246 6.112 97.2913 6.24C97.5686 6.368 97.9953 6.496 98.5713 6.624C99.2326 6.79467 99.7713 6.96533 100.187 7.136C100.603 7.296 100.966 7.56267 101.275 7.936C101.595 8.29867 101.761 8.78933 101.771 9.408C101.771 9.93067 101.622 10.4 101.323 10.816C101.035 11.2213 100.614 11.5413 100.059 11.776C99.5153 12.0107 98.8806 12.128 98.1553 12.128Z" fill="#303030"/>
<path d="M13.4476 8.50725H4.15427L4.62089 7.60134L12.3739 7.58795C12.636 7.58795 12.8608 7.40945 12.9076 7.16251L13.9813 1.43399C14.0094 1.28375 13.9672 1.12904 13.8642 1.01153C13.8133 0.953693 13.7498 0.907106 13.6781 0.874997C13.6065 0.842889 13.5283 0.826029 13.4491 0.825586L3.58622 0.794347L3.50195 0.416512C3.44889 0.17553 3.22105 0 2.96199 0H0.550886C0.404782 0 0.264662 0.0553231 0.161351 0.153799C0.0580396 0.252275 0 0.385837 0 0.525102C0 0.664368 0.0580396 0.79793 0.161351 0.896406C0.264662 0.994881 0.404782 1.0502 0.550886 1.0502H2.51566L2.88396 2.71923L3.79066 6.90368L2.62334 8.71997C2.56272 8.79796 2.52621 8.89056 2.51794 8.98731C2.50966 9.08405 2.52996 9.18107 2.57652 9.26739C2.67016 9.4444 2.85899 9.55597 3.06811 9.55597H4.04816C3.83922 9.82049 3.72637 10.1427 3.72668 10.4738C3.72668 11.3157 4.44454 12 5.32783 12C6.21112 12 6.92899 11.3157 6.92899 10.4738C6.92899 10.1421 6.81351 9.81926 6.60751 9.55597H9.12161C8.91268 9.82049 8.79983 10.1427 8.80013 10.4738C8.80013 11.3157 9.518 12 10.4013 12C11.2846 12 12.0025 11.3157 12.0025 10.4738C12.0025 10.1421 11.887 9.81926 11.681 9.55597H13.4491C13.7519 9.55597 14 9.32094 14 9.03087C13.9991 8.89175 13.9405 8.75862 13.837 8.66052C13.7335 8.56242 13.5935 8.50733 13.4476 8.50725V8.50725ZM3.81563 1.82968L12.8015 1.85794L11.9213 6.5556L4.86278 6.5675L3.81563 1.82968ZM5.32783 10.9438C5.05629 10.9438 4.83469 10.7326 4.83469 10.4738C4.83469 10.2149 5.05629 10.0037 5.32783 10.0037C5.59938 10.0037 5.82098 10.2149 5.82098 10.4738C5.82098 10.5985 5.76902 10.718 5.67654 10.8062C5.58406 10.8943 5.45862 10.9438 5.32783 10.9438V10.9438ZM10.4013 10.9438C10.1298 10.9438 9.90815 10.7326 9.90815 10.4738C9.90815 10.2149 10.1298 10.0037 10.4013 10.0037C10.6728 10.0037 10.8944 10.2149 10.8944 10.4738C10.8944 10.5985 10.8425 10.718 10.75 10.8062C10.6575 10.8943 10.5321 10.9438 10.4013 10.9438V10.9438Z" fill="#51E9F2"/>
</svg>
