<svg width="241" height="54" viewBox="0 0 241 54" fill="none" xmlns="http://www.w3.org/2000/svg">
<path d="M58.964 35.536H49.532L48.02 40H41.576L50.72 14.728H57.848L66.992 40H60.476L58.964 35.536ZM57.38 30.784L54.248 21.532L51.152 30.784H57.38ZM95.407 19.696C97.903 19.696 99.883 20.452 101.347 21.964C102.835 23.476 103.579 25.576 103.579 28.264V40H97.459V29.092C97.459 27.796 97.111 26.8 96.415 26.104C95.743 25.384 94.807 25.024 93.607 25.024C92.407 25.024 91.459 25.384 90.763 26.104C90.091 26.8 89.755 27.796 89.755 29.092V40H83.635V29.092C83.635 27.796 83.287 26.8 82.591 26.104C81.919 25.384 80.983 25.024 79.783 25.024C78.583 25.024 77.635 25.384 76.939 26.104C76.267 26.8 75.931 27.796 75.931 29.092V40H69.775V19.912H75.931V22.432C76.555 21.592 77.371 20.932 78.379 20.452C79.387 19.948 80.527 19.696 81.799 19.696C83.311 19.696 84.655 20.02 85.831 20.668C87.031 21.316 87.967 22.24 88.639 23.44C89.335 22.336 90.283 21.436 91.483 20.74C92.683 20.044 93.991 19.696 95.407 19.696ZM106.66 29.92C106.66 27.856 107.044 26.044 107.812 24.484C108.604 22.924 109.672 21.724 111.016 20.884C112.36 20.044 113.86 19.624 115.516 19.624C116.932 19.624 118.168 19.912 119.224 20.488C120.304 21.064 121.132 21.82 121.708 22.756V19.912H127.864V40H121.708V37.156C121.108 38.092 120.268 38.848 119.188 39.424C118.132 40 116.896 40.288 115.48 40.288C113.848 40.288 112.36 39.868 111.016 39.028C109.672 38.164 108.604 36.952 107.812 35.392C107.044 33.808 106.66 31.984 106.66 29.92ZM121.708 29.956C121.708 28.42 121.276 27.208 120.412 26.32C119.572 25.432 118.54 24.988 117.316 24.988C116.092 24.988 115.048 25.432 114.184 26.32C113.344 27.184 112.924 28.384 112.924 29.92C112.924 31.456 113.344 32.68 114.184 33.592C115.048 34.48 116.092 34.924 117.316 34.924C118.54 34.924 119.572 34.48 120.412 33.592C121.276 32.704 121.708 31.492 121.708 29.956ZM138.078 34.924H146.79V40H131.202V35.104L139.554 24.988H131.274V19.912H146.61V24.808L138.078 34.924ZM169.113 29.632C169.113 30.208 169.077 30.808 169.005 31.432H155.073C155.169 32.68 155.565 33.64 156.261 34.312C156.981 34.96 157.857 35.284 158.889 35.284C160.425 35.284 161.493 34.636 162.093 33.34H168.645C168.309 34.66 167.697 35.848 166.809 36.904C165.945 37.96 164.853 38.788 163.533 39.388C162.213 39.988 160.737 40.288 159.105 40.288C157.137 40.288 155.385 39.868 153.849 39.028C152.313 38.188 151.113 36.988 150.249 35.428C149.385 33.868 148.953 32.044 148.953 29.956C148.953 27.868 149.373 26.044 150.213 24.484C151.077 22.924 152.277 21.724 153.813 20.884C155.349 20.044 157.113 19.624 159.105 19.624C161.049 19.624 162.777 20.032 164.289 20.848C165.801 21.664 166.977 22.828 167.817 24.34C168.681 25.852 169.113 27.616 169.113 29.632ZM162.813 28.012C162.813 26.956 162.453 26.116 161.733 25.492C161.013 24.868 160.113 24.556 159.033 24.556C158.001 24.556 157.125 24.856 156.405 25.456C155.709 26.056 155.277 26.908 155.109 28.012H162.813ZM171.137 29.92C171.137 27.856 171.521 26.044 172.289 24.484C173.081 22.924 174.149 21.724 175.493 20.884C176.837 20.044 178.337 19.624 179.993 19.624C181.313 19.624 182.513 19.9 183.593 20.452C184.697 21.004 185.561 21.748 186.185 22.684V13.36H192.341V40H186.185V37.12C185.609 38.08 184.781 38.848 183.701 39.424C182.645 40 181.409 40.288 179.993 40.288C178.337 40.288 176.837 39.868 175.493 39.028C174.149 38.164 173.081 36.952 172.289 35.392C171.521 33.808 171.137 31.984 171.137 29.92ZM186.185 29.956C186.185 28.42 185.753 27.208 184.889 26.32C184.049 25.432 183.017 24.988 181.793 24.988C180.569 24.988 179.525 25.432 178.661 26.32C177.821 27.184 177.401 28.384 177.401 29.92C177.401 31.456 177.821 32.68 178.661 33.592C179.525 34.48 180.569 34.924 181.793 34.924C183.017 34.924 184.049 34.48 184.889 33.592C185.753 32.704 186.185 31.492 186.185 29.956ZM202.843 14.728V29.848C202.843 31.36 203.215 32.524 203.959 33.34C204.703 34.156 205.795 34.564 207.235 34.564C208.675 34.564 209.779 34.156 210.547 33.34C211.315 32.524 211.699 31.36 211.699 29.848V14.728H217.855V29.812C217.855 32.068 217.375 33.976 216.415 35.536C215.455 37.096 214.159 38.272 212.527 39.064C210.919 39.856 209.119 40.252 207.127 40.252C205.135 40.252 203.347 39.868 201.763 39.1C200.203 38.308 198.967 37.132 198.055 35.572C197.143 33.988 196.687 32.068 196.687 29.812V14.728H202.843ZM230.349 40.288C228.597 40.288 227.037 39.988 225.669 39.388C224.301 38.788 223.221 37.972 222.429 36.94C221.637 35.884 221.193 34.708 221.097 33.412H227.181C227.253 34.108 227.577 34.672 228.153 35.104C228.729 35.536 229.437 35.752 230.277 35.752C231.045 35.752 231.633 35.608 232.041 35.32C232.473 35.008 232.689 34.612 232.689 34.132C232.689 33.556 232.389 33.136 231.789 32.872C231.189 32.584 230.217 32.272 228.873 31.936C227.433 31.6 226.233 31.252 225.273 30.892C224.313 30.508 223.485 29.92 222.789 29.128C222.093 28.312 221.745 27.22 221.745 25.852C221.745 24.7 222.057 23.656 222.681 22.72C223.329 21.76 224.265 21.004 225.489 20.452C226.737 19.9 228.213 19.624 229.917 19.624C232.437 19.624 234.417 20.248 235.857 21.496C237.321 22.744 238.161 24.4 238.377 26.464H232.689C232.593 25.768 232.281 25.216 231.753 24.808C231.249 24.4 230.577 24.196 229.737 24.196C229.017 24.196 228.465 24.34 228.081 24.628C227.697 24.892 227.505 25.264 227.505 25.744C227.505 26.32 227.805 26.752 228.405 27.04C229.029 27.328 229.989 27.616 231.285 27.904C232.773 28.288 233.985 28.672 234.921 29.056C235.857 29.416 236.673 30.016 237.369 30.856C238.089 31.672 238.461 32.776 238.485 34.168C238.485 35.344 238.149 36.4 237.477 37.336C236.829 38.248 235.881 38.968 234.633 39.496C233.409 40.024 231.981 40.288 230.349 40.288Z" fill="#303030"/>
<path d="M39.3821 30.3949H12.1661L13.5326 27.9037L36.2378 27.8669C37.0056 27.8669 37.6637 27.376 37.8008 26.6969L40.9452 10.9435C41.0274 10.5303 40.904 10.1049 40.6024 9.7817C40.4533 9.62266 40.2674 9.49454 40.0574 9.40624C39.8475 9.31795 39.6186 9.27158 39.3867 9.27036L10.5025 9.18445L10.2557 8.14541C10.1003 7.48271 9.43306 7 8.6744 7H1.61331C1.18543 7 0.775082 7.15214 0.472527 7.42295C0.169973 7.69376 0 8.06105 0 8.44403C0 8.82701 0.169973 9.19431 0.472527 9.46512C0.775082 9.73592 1.18543 9.88806 1.61331 9.88806H7.36729L8.44588 14.4779L11.1012 25.9851L7.68264 30.9799C7.50511 31.1944 7.39818 31.4491 7.37395 31.7151C7.34972 31.9811 7.40916 32.2479 7.54554 32.4853C7.81975 32.9721 8.37276 33.2789 8.98517 33.2789H11.8553C11.2434 34.0063 10.9129 34.8924 10.9138 35.8029C10.9138 38.1183 13.0162 40 15.6029 40C18.1897 40 20.2921 38.1183 20.2921 35.8029C20.2921 34.8907 19.9539 34.003 19.3506 33.2789H26.7133C26.1014 34.0063 25.7709 34.8924 25.7718 35.8029C25.7718 38.1183 27.8742 40 30.4609 40C33.0477 40 35.15 38.1183 35.15 35.8029C35.15 34.8907 34.8118 34.003 34.2086 33.2789H39.3867C40.2733 33.2789 41 32.6326 41 31.8349C40.9973 31.4523 40.8257 31.0862 40.5227 30.8164C40.2196 30.5467 39.8096 30.3952 39.3821 30.3949ZM11.1743 12.0316L37.49 12.1093L34.9124 25.0279L14.241 25.0606L11.1743 12.0316ZM15.6029 37.0956C14.8077 37.0956 14.1587 36.5147 14.1587 35.8029C14.1587 35.0911 14.8077 34.5102 15.6029 34.5102C16.3982 34.5102 17.0472 35.0911 17.0472 35.8029C17.0472 36.1457 16.895 36.4745 16.6242 36.717C16.3533 36.9594 15.986 37.0956 15.6029 37.0956ZM30.4609 37.0956C29.6657 37.0956 29.0167 36.5147 29.0167 35.8029C29.0167 35.0911 29.6657 34.5102 30.4609 34.5102C31.2562 34.5102 31.9051 35.0911 31.9051 35.8029C31.9051 36.1457 31.753 36.4745 31.4821 36.717C31.2113 36.9594 30.844 37.0956 30.4609 37.0956Z" fill="#51E9F2"/>
</svg>
