<svg width="50" height="38" viewBox="0 0 50 38" fill="none" xmlns="http://www.w3.org/2000/svg">
<path d="M48.027 26.9396H14.8367L16.5032 24.0709L44.1924 24.0285C45.1287 24.0285 45.9313 23.4632 46.0985 22.6813L49.9331 4.54097C50.0334 4.0652 49.883 3.57531 49.5151 3.20317C49.3333 3.02003 49.1065 2.8725 48.8505 2.77083C48.5945 2.66915 48.3154 2.61576 48.0326 2.61435L12.8079 2.51543L12.507 1.31895C12.3175 0.555845 11.5037 0 10.5785 0H1.96745C1.44565 0 0.945222 0.17519 0.576253 0.48703C0.207284 0.79887 0 1.22182 0 1.66282C0 2.10383 0.207284 2.52678 0.576253 2.83862C0.945222 3.15046 1.44565 3.32565 1.96745 3.32565H8.98451L10.2999 8.61088L13.5381 21.8617L9.36908 27.6132C9.15258 27.8602 9.02217 28.1535 8.99263 28.4598C8.96308 28.7662 9.03556 29.0734 9.20187 29.3467C9.53628 29.9073 10.2107 30.2606 10.9575 30.2606H14.4577C13.7115 31.0982 13.3085 32.1185 13.3096 33.167C13.3096 35.8331 15.8734 38 19.028 38C22.1826 38 24.7464 35.8331 24.7464 33.167C24.7464 32.1165 24.334 31.0943 23.5983 30.2606H32.5772C31.831 31.0982 31.428 32.1185 31.429 33.167C31.429 35.8331 33.9929 38 37.1475 38C40.3021 38 42.8659 35.8331 42.8659 33.167C42.8659 32.1165 42.4535 31.0943 41.7178 30.2606H48.0326C49.1138 30.2606 50 29.5163 50 28.5977C49.9968 28.1572 49.7875 27.7356 49.4179 27.425C49.0482 27.1143 48.5482 26.9399 48.027 26.9396ZM13.6272 5.79398L45.7195 5.88348L42.5761 20.7594L17.3671 20.7971L13.6272 5.79398ZM19.028 34.6555C18.0582 34.6555 17.2667 33.9866 17.2667 33.167C17.2667 32.3473 18.0582 31.6784 19.028 31.6784C19.9978 31.6784 20.7892 32.3473 20.7892 33.167C20.7892 33.5618 20.6037 33.9404 20.2734 34.2195C19.9431 34.4987 19.4951 34.6555 19.028 34.6555ZM37.1475 34.6555C36.1777 34.6555 35.3862 33.9866 35.3862 33.167C35.3862 32.3473 36.1777 31.6784 37.1475 31.6784C38.1173 31.6784 38.9087 32.3473 38.9087 33.167C38.9087 33.5618 38.7231 33.9404 38.3929 34.2195C38.0626 34.4987 37.6146 34.6555 37.1475 34.6555Z" fill="#51E9F2"/>
</svg>
